<mxfile host="app.diagrams.net" modified="2024-04-08T13:31:59.496Z" agent="Mozilla/5.0 (Windows NT 10.0; Win64; x64) AppleWebKit/537.36 (KHTML, like Gecko) Chrome/114.0.5735.289 Safari/537.36" version="24.2.2" etag="3iRshQ3p5vWTwLov_U5Z" type="github">
  <diagram name="第 1 页" id="RE91SrEdOpgMTGec5jE5">
    <mxGraphModel>
      <root>
        <mxCell id="0" />
        <mxCell id="1" parent="0" />
      </root>
    </mxGraphModel>
  </diagram>
</mxfile>
